<?xml version="1.0" encoding="UTF-8"?>
<svg version="1.1" xmlns="http://www.w3.org/2000/svg" width="512" height="512">
<style>
    .s0 { fill: #fff }
</style>
<path class="s0" d="M0 0 C26.4 0 52.8 0 80 0 C80 2.64 80 5.28 80 8 C90.56 8 101.12 8 112 8 C112 10.64 112 13.28 112 16 C117.28 16 122.56 16 128 16 C128 18.64 128 21.28 128 24 C133.28 24 138.56 24 144 24 C144 26.64 144 29.28 144 32 C149.28 32 154.56 32 160 32 C160 34.64 160 37.28 160 40 C162.64 40 165.28 40 168 40 C168 42.64 168 45.28 168 48 C170.64 48 173.28 48 176 48 C176 50.64 176 53.28 176 56 C178.64 56 181.28 56 184 56 C184 58.64 184 61.28 184 64 C186.64 64 189.28 64 192 64 C192 66.64 192 69.28 192 72 C194.64 72 197.28 72 200 72 C200 74.64 200 77.28 200 80 C202.64 80 205.28 80 208 80 C208 82.64 208 85.28 208 88 C210.64 88 213.28 88 216 88 C216 93.28 216 98.56 216 104 C218.64 104 221.28 104 224 104 C224 109.28 224 114.56 224 120 C226.64 120 229.28 120 232 120 C232 125.28 232 130.56 232 136 C234.64 136 237.28 136 240 136 C240 146.56 240 157.12 240 168 C242.64 168 245.28 168 248 168 C248 194.4 248 220.8 248 248 C245.36 248 242.72 248 240 248 C240 258.56 240 269.12 240 280 C237.36 280 234.72 280 232 280 C232 285.28 232 290.56 232 296 C229.36 296 226.72 296 224 296 C224 301.28 224 306.56 224 312 C221.36 312 218.72 312 216 312 C216 317.28 216 322.56 216 328 C213.36 328 210.72 328 208 328 C208 330.64 208 333.28 208 336 C205.36 336 202.72 336 200 336 C200 338.64 200 341.28 200 344 C197.36 344 194.72 344 192 344 C192 346.64 192 349.28 192 352 C189.36 352 186.72 352 184 352 C184 354.64 184 357.28 184 360 C181.36 360 178.72 360 176 360 C176 362.64 176 365.28 176 368 C173.36 368 170.72 368 168 368 C168 370.64 168 373.28 168 376 C165.36 376 162.72 376 160 376 C160 378.64 160 381.28 160 384 C154.72 384 149.44 384 144 384 C144 386.64 144 389.28 144 392 C138.72 392 133.44 392 128 392 C128 394.64 128 397.28 128 400 C122.72 400 117.44 400 112 400 C112 402.64 112 405.28 112 408 C106.72 408 101.44 408 96 408 C96 376.32 96 344.64 96 312 C93.36 312 90.72 312 88 312 C88 309.36 88 306.72 88 304 C85.36 304 82.72 304 80 304 C80 301.36 80 298.72 80 296 C77.36 296 74.72 296 72 296 C72 290.72 72 285.44 72 280 C82.56 280 93.12 280 104 280 C104 277.36 104 274.72 104 272 C109.28 272 114.56 272 120 272 C120 269.36 120 266.72 120 264 C125.28 264 130.56 264 136 264 C136 261.36 136 258.72 136 256 C141.28 256 146.56 256 152 256 C152 250.72 152 245.44 152 240 C157.28 240 162.56 240 168 240 C168 234.72 168 229.44 168 224 C170.64 224 173.28 224 176 224 C176 197.6 176 171.2 176 144 C173.36 144 170.72 144 168 144 C168 138.72 168 133.44 168 128 C165.36 128 162.72 128 160 128 C160 122.72 160 117.44 160 112 C162.64 112 165.28 112 168 112 C168 96.16 168 80.32 168 64 C152.16 64 136.32 64 120 64 C120 66.64 120 69.28 120 72 C117.36 72 114.72 72 112 72 C112 74.64 112 77.28 112 80 C104.08 80 96.16 80 88 80 C88 77.36 88 74.72 88 72 C56.32 72 24.64 72 -8 72 C-8 74.64 -8 77.28 -8 80 C-15.92 80 -23.84 80 -32 80 C-32 77.36 -32 74.72 -32 72 C-34.64 72 -37.28 72 -40 72 C-40 69.36 -40 66.72 -40 64 C-55.84 64 -71.68 64 -88 64 C-88 79.84 -88 95.68 -88 112 C-85.36 112 -82.72 112 -80 112 C-80 117.28 -80 122.56 -80 128 C-82.64 128 -85.28 128 -88 128 C-88 133.28 -88 138.56 -88 144 C-90.64 144 -93.28 144 -96 144 C-96 170.4 -96 196.8 -96 224 C-93.36 224 -90.72 224 -88 224 C-88 229.28 -88 234.56 -88 240 C-82.72 240 -77.44 240 -72 240 C-72 245.28 -72 250.56 -72 256 C-66.72 256 -61.44 256 -56 256 C-56 258.64 -56 261.28 -56 264 C-50.72 264 -45.44 264 -40 264 C-40 266.64 -40 269.28 -40 272 C-34.72 272 -29.44 272 -24 272 C-24 274.64 -24 277.28 -24 280 C-13.44 280 -2.88 280 8 280 C8 285.28 8 290.56 8 296 C5.36 296 2.72 296 0 296 C0 298.64 0 301.28 0 304 C-2.64 304 -5.28 304 -8 304 C-8 306.64 -8 309.28 -8 312 C-13.28 312 -18.56 312 -24 312 C-24 314.64 -24 317.28 -24 320 C-37.2 320 -50.4 320 -64 320 C-64 317.36 -64 314.72 -64 312 C-69.28 312 -74.56 312 -80 312 C-80 306.72 -80 301.44 -80 296 C-85.28 296 -90.56 296 -96 296 C-96 290.72 -96 285.44 -96 280 C-106.56 280 -117.12 280 -128 280 C-128 285.28 -128 290.56 -128 296 C-122.72 296 -117.44 296 -112 296 C-112 301.28 -112 306.56 -112 312 C-106.72 312 -101.44 312 -96 312 C-96 317.28 -96 322.56 -96 328 C-90.72 328 -85.44 328 -80 328 C-80 330.64 -80 333.28 -80 336 C-74.72 336 -69.44 336 -64 336 C-64 338.64 -64 341.28 -64 344 C-50.8 344 -37.6 344 -24 344 C-24 341.36 -24 338.72 -24 336 C-18.72 336 -13.44 336 -8 336 C-8 359.76 -8 383.52 -8 408 C-15.92 408 -23.84 408 -32 408 C-32 405.36 -32 402.72 -32 400 C-37.28 400 -42.56 400 -48 400 C-48 397.36 -48 394.72 -48 392 C-53.28 392 -58.56 392 -64 392 C-64 389.36 -64 386.72 -64 384 C-69.28 384 -74.56 384 -80 384 C-80 381.36 -80 378.72 -80 376 C-82.64 376 -85.28 376 -88 376 C-88 373.36 -88 370.72 -88 368 C-90.64 368 -93.28 368 -96 368 C-96 365.36 -96 362.72 -96 360 C-98.64 360 -101.28 360 -104 360 C-104 357.36 -104 354.72 -104 352 C-106.64 352 -109.28 352 -112 352 C-112 349.36 -112 346.72 -112 344 C-114.64 344 -117.28 344 -120 344 C-120 341.36 -120 338.72 -120 336 C-122.64 336 -125.28 336 -128 336 C-128 333.36 -128 330.72 -128 328 C-130.64 328 -133.28 328 -136 328 C-136 322.72 -136 317.44 -136 312 C-138.64 312 -141.28 312 -144 312 C-144 306.72 -144 301.44 -144 296 C-146.64 296 -149.28 296 -152 296 C-152 290.72 -152 285.44 -152 280 C-154.64 280 -157.28 280 -160 280 C-160 269.44 -160 258.88 -160 248 C-162.64 248 -165.28 248 -168 248 C-168 221.6 -168 195.2 -168 168 C-165.36 168 -162.72 168 -160 168 C-160 157.44 -160 146.88 -160 136 C-157.36 136 -154.72 136 -152 136 C-152 130.72 -152 125.44 -152 120 C-149.36 120 -146.72 120 -144 120 C-144 114.72 -144 109.44 -144 104 C-141.36 104 -138.72 104 -136 104 C-136 98.72 -136 93.44 -136 88 C-133.36 88 -130.72 88 -128 88 C-128 85.36 -128 82.72 -128 80 C-125.36 80 -122.72 80 -120 80 C-120 77.36 -120 74.72 -120 72 C-117.36 72 -114.72 72 -112 72 C-112 69.36 -112 66.72 -112 64 C-109.36 64 -106.72 64 -104 64 C-104 61.36 -104 58.72 -104 56 C-101.36 56 -98.72 56 -96 56 C-96 53.36 -96 50.72 -96 48 C-93.36 48 -90.72 48 -88 48 C-88 45.36 -88 42.72 -88 40 C-85.36 40 -82.72 40 -80 40 C-80 37.36 -80 34.72 -80 32 C-74.72 32 -69.44 32 -64 32 C-64 29.36 -64 26.72 -64 24 C-58.72 24 -53.44 24 -48 24 C-48 21.36 -48 18.72 -48 16 C-42.72 16 -37.44 16 -32 16 C-32 13.36 -32 10.72 -32 8 C-21.44 8 -10.88 8 0 8 C0 5.36 0 2.72 0 0 Z " transform="translate(216,48)"/>
</svg>
